<?xml version="1.0" standalone="no"?>
<!DOCTYPE svg PUBLIC "-//W3C//DTD SVG 20010904//EN"
 "http://www.w3.org/TR/2001/REC-SVG-20010904/DTD/svg10.dtd">
<svg version="1.0" xmlns="http://www.w3.org/2000/svg"
 width="700.000000pt" height="700.000000pt" viewBox="0 0 700.000000 700.000000"
 preserveAspectRatio="xMidYMid meet">
<metadata>
Created by potrace 1.11, written by Peter Selinger 2001-2013
</metadata>
<g transform="translate(0.000000,700.000000) scale(0.100000,-0.100000)"
fill="#000000" stroke="none">
<path d="M2534 5910 c-56 -22 -68 -107 -40 -270 8 -47 18 -107 22 -135 4 -27
8 -52 9 -55 0 -3 5 -32 10 -65 5 -33 9 -62 10 -65 0 -3 5 -30 9 -60 4 -30 9
-62 11 -70 1 -8 8 -51 14 -95 7 -44 21 -132 31 -195 10 -63 21 -133 25 -155 3
-22 7 -51 10 -65 2 -14 8 -59 15 -100 6 -41 17 -115 25 -165 8 -49 17 -110 20
-135 3 -25 8 -56 11 -70 2 -14 7 -43 9 -64 3 -22 8 -53 11 -70 3 -17 7 -42 9
-56 4 -35 17 -122 20 -142 2 -9 11 -68 20 -130 9 -62 19 -117 22 -122 3 -4 -3
-6 -13 -3 -146 44 -582 165 -616 172 -10 2 -147 38 -306 81 l-289 76 -59 97
c-32 52 -63 104 -69 113 -5 10 -37 61 -70 113 -33 53 -64 104 -70 113 -5 10
-55 87 -109 171 -189 294 -345 510 -428 592 -83 82 -249 140 -301 106 -40 -26
-52 -112 -34 -252 4 -27 9 -81 12 -120 3 -38 8 -88 10 -110 2 -22 7 -78 10
-125 3 -47 8 -107 10 -135 2 -27 7 -90 10 -140 3 -49 8 -126 10 -170 7 -105
13 -204 20 -345 8 -162 45 -279 126 -401 65 -97 132 -148 316 -242 262 -133
936 -420 1303 -554 52 -19 104 -38 115 -43 11 -5 47 -19 80 -30 33 -12 69 -26
80 -31 11 -5 121 -45 245 -89 124 -45 249 -90 278 -101 28 -10 76 -28 105 -38
28 -11 111 -41 182 -66 440 -157 880 -316 900 -325 82 -36 708 -247 905 -305
25 -7 77 -22 115 -33 118 -35 404 -104 480 -116 11 -2 47 -8 80 -15 33 -6 80
-13 105 -16 25 -3 65 -8 90 -11 86 -12 275 -10 340 3 134 28 201 84 195 162
-14 171 -193 493 -389 700 -198 207 -372 328 -618 425 -100 39 -760 262 -1018
343 l-95 30 -95 184 c-498 964 -828 1564 -1123 2039 -162 261 -170 271 -357
423 -37 31 -163 113 -205 136 -46 24 -101 32 -131 21z"/>
<path d="M559 1217 c-48 -12 -87 -46 -110 -95 -40 -81 -6 -182 75 -224 l41
-22 2925 -1 c2203 0 2932 3 2958 12 144 49 154 247 17 321 -27 15 -285 16
-2952 17 -1608 0 -2937 -4 -2954 -8z"/>
</g>
</svg>
