<?xml version="1.0" standalone="no"?>
<!DOCTYPE svg PUBLIC "-//W3C//DTD SVG 20010904//EN"
 "http://www.w3.org/TR/2001/REC-SVG-20010904/DTD/svg10.dtd">
<svg version="1.0" xmlns="http://www.w3.org/2000/svg"
 width="700.000000pt" height="700.000000pt" viewBox="0 0 700.000000 700.000000"
 preserveAspectRatio="xMidYMid meet">
<metadata>
Created by potrace 1.11, written by Peter Selinger 2001-2013
</metadata>
<g transform="translate(0.000000,700.000000) scale(0.100000,-0.100000)"
fill="#000000" stroke="none">
<path d="M2553 6288 c-40 -19 -54 -106 -34 -214 5 -27 12 -74 16 -104 4 -30 8
-58 10 -61 2 -3 6 -25 9 -50 3 -24 8 -57 11 -74 11 -62 30 -175 40 -239 4 -21
8 -46 10 -55 1 -9 6 -41 11 -71 4 -30 8 -57 9 -60 1 -3 5 -27 9 -55 4 -27 11
-72 16 -100 5 -27 12 -70 15 -95 3 -25 8 -52 10 -60 2 -8 7 -35 10 -60 12 -84
16 -115 30 -196 8 -45 17 -103 20 -130 3 -27 8 -58 10 -70 3 -12 7 -39 10 -60
3 -21 10 -64 15 -94 5 -30 12 -73 15 -95 3 -23 8 -52 10 -65 3 -14 8 -49 11
-79 6 -49 5 -53 -12 -47 -96 30 -831 224 -954 251 -8 2 -49 12 -90 23 -41 11
-87 22 -102 26 -16 3 -28 10 -28 15 0 5 -17 36 -38 68 -55 85 -205 320 -217
340 -59 104 -349 512 -441 623 -84 101 -124 132 -219 166 -79 29 -136 31 -158
6 -17 -18 -34 -83 -31 -117 5 -72 16 -187 19 -206 4 -24 15 -145 20 -229 8
-110 17 -238 20 -275 2 -22 7 -85 10 -140 3 -55 7 -125 10 -155 2 -30 6 -107
10 -170 3 -63 13 -140 21 -170 16 -55 69 -174 89 -197 5 -7 30 -36 55 -66 56
-67 120 -109 280 -185 204 -97 245 -115 520 -227 118 -48 224 -91 235 -96 31
-13 217 -85 360 -139 162 -60 565 -207 635 -230 31 -10 413 -143 685 -238 110
-39 261 -91 335 -117 74 -25 142 -49 150 -52 8 -3 20 -7 25 -9 6 -1 75 -26
155 -54 797 -282 1336 -432 1750 -487 71 -9 311 -10 372 -1 90 13 167 58 186
108 13 35 -9 130 -51 229 -135 310 -435 631 -737 789 -129 67 -649 245 -1199
410 -72 21 -59 5 -171 217 -34 66 -88 167 -120 225 -31 58 -74 137 -95 175
-139 258 -328 597 -428 770 -39 66 -87 149 -107 185 -69 119 -231 383 -342
557 -134 209 -185 265 -343 379 -181 130 -259 162 -322 132z"/>
<path d="M642 862 c-90 -31 -136 -125 -105 -217 16 -45 45 -80 88 -103 27 -15
278 -16 2860 -17 2341 -1 2837 1 2870 12 148 50 160 246 20 321 -27 15 -278
16 -2863 17 -2272 0 -2840 -2 -2870 -13z"/>
</g>
</svg>
